<svg xmlns="http://www.w3.org/2000/svg" width="13" height="14" viewBox="0 0 13 14" fill="none">
<path fill-rule="evenodd" clip-rule="evenodd" d="M0.21967 6.46967C-0.0732236 6.76256 -0.0732236 7.23744 0.21967 7.53033L6.21967 13.5303C6.51256 13.8232 6.98744 13.8232 7.28033 13.5303C7.57322 13.2374 7.57322 12.7626 7.28033 12.4697L1.81066 7L7.28033 1.53033C7.57322 1.23744 7.57322 0.762563 7.28033 0.46967C6.98744 0.176777 6.51256 0.176777 6.21967 0.46967L0.21967 6.46967Z" fill="black"/>
<path fill-rule="evenodd" clip-rule="evenodd" d="M4.96967 7.53033C4.67678 7.23744 4.67678 6.76256 4.96967 6.46967L10.9697 0.469671C11.2626 0.176777 11.7374 0.176777 12.0303 0.469671C12.3232 0.762563 12.3232 1.23744 12.0303 1.53033L6.56066 7L12.0303 12.4697C12.3232 12.7626 12.3232 13.2374 12.0303 13.5303C11.7374 13.8232 11.2626 13.8232 10.9697 13.5303L4.96967 7.53033Z" fill="black"/>
</svg>