<svg xmlns="http://www.w3.org/2000/svg" width="13" height="14" viewBox="0 0 13 14" fill="none">
<path fill-rule="evenodd" clip-rule="evenodd" d="M7.28033 6.46967C7.57322 6.76256 7.57322 7.23744 7.28033 7.53033L1.28033 13.5303C0.987437 13.8232 0.512564 13.8232 0.21967 13.5303C-0.0732225 13.2374 -0.0732226 12.7626 0.21967 12.4697L5.68934 7L0.21967 1.53033C-0.0732231 1.23744 -0.0732231 0.762563 0.21967 0.46967C0.512563 0.176777 0.987437 0.176777 1.28033 0.46967L7.28033 6.46967Z" fill="black"/>
<path fill-rule="evenodd" clip-rule="evenodd" d="M12.0303 6.46967C12.3232 6.76256 12.3232 7.23744 12.0303 7.53033L6.03033 13.5303C5.73744 13.8232 5.26256 13.8232 4.96967 13.5303C4.67678 13.2374 4.67678 12.7626 4.96967 12.4697L10.4393 7L4.96967 1.53033C4.67678 1.23744 4.67678 0.762563 4.96967 0.46967C5.26256 0.176777 5.73744 0.176777 6.03033 0.46967L12.0303 6.46967Z" fill="black"/>
</svg>